<svg width="255" height="31" viewBox="0 0 255 31" fill="none" xmlns="http://www.w3.org/2000/svg">
	<path d="M21.5 0L26.5516 11.7467L42.8988 11.7467L29.6736 19.0066L34.7252 30.7533L21.5 23.4934L8.27483 30.7533L13.3264 19.0066L0.101229 11.7467L16.4484 11.7467L21.5 0Z" fill="#FFD700"/>
	<path d="M74.5 0L79.5516 11.7467L95.8988 11.7467L82.6736 19.0066L87.7252 30.7533L74.5 23.4934L61.2748 30.7533L66.3264 19.0066L53.1012 11.7467L69.4484 11.7467L74.5 0Z" fill="#FFD700"/>
	<path d="M127.5 0L132.552 11.7467L148.899 11.7467L135.674 19.0066L140.725 30.7533L127.5 23.4934L114.275 30.7533L119.326 19.0066L106.101 11.7467L122.448 11.7467L127.5 0Z" fill="#CCCCCC"/>
	<path d="M180.5 0L185.552 11.7467L201.899 11.7467L188.674 19.0066L193.725 30.7533L180.5 23.4934L167.275 30.7533L172.326 19.0066L159.101 11.7467L175.448 11.7467L180.5 0Z" fill="#CCCCCC"/>
	<path d="M233.5 0L238.552 11.7467L254.899 11.7467L241.674 19.0066L246.725 30.7533L233.5 23.4934L220.275 30.7533L225.326 19.0066L212.101 11.7467L228.448 11.7467L233.5 0Z" fill="#CCCCCC"/>
</svg>